<svg width="860" height="226" viewBox="0 0 860 226" xmlns="http://www.w3.org/2000/svg">
<rect width="860" height="226" rx="12" fill="#161b22" stroke="#30363d" stroke-width="1"/>

<text x="22" y="30" font-family="'Courier New', Consolas, 'Lucida Console', monospace" font-size="11" fill="#30363d">⠿</text>
<text x="36" y="30" font-family="'Courier New', Consolas, 'Lucida Console', monospace" font-size="11" font-weight="bold" fill="#2dd4bf" letter-spacing="1.2">SKILLS</text>
<<<<<<< HEAD

=======
<text x="840" y="30" font-family="'Courier New', Consolas, 'Lucida Console', monospace" font-size="11" fill="#8b949e" text-anchor="end">1 visual</text>
>>>>>>> c9fd9e65b0b737507d86884b279ffea1b7a81b1c
<line x1="20" y1="42" x2="840" y2="42" stroke="#30363d" stroke-width="1"/>
<!-- terminal chrome -->
<rect x="20" y="56" width="820" height="116" rx="8" fill="#0d1117" stroke="#30363d" stroke-width="1"/>
<rect x="20" y="56" width="820" height="34" rx="8" fill="#21262d"/>
<rect x="20" y="82" width="820" height="8" fill="#21262d"/>
<line x1="20" y1="90" x2="840" y2="90" stroke="#30363d" stroke-width="1"/>
<circle cx="36" cy="73" r="5" fill="#ff5f57"/>
<circle cx="52" cy="73" r="5" fill="#ffbd2e"/>
<circle cx="68" cy="73" r="5" fill="#28c840"/>
<text x="430" y="78" font-family="'Courier New', Consolas, 'Lucida Console', monospace" font-size="11" fill="#8b949e" text-anchor="middle">alisanan0604@github: ~$ ls skills/</text><text x="40" y="106" font-family="'Courier New', Consolas, 'Lucida Console', monospace" font-size="13"><tspan fill="#2dd4bf" font-weight="bold">alisanan0604@github</tspan><tspan fill="#8b949e"> :~$ </tspan><tspan fill="#e6edf3">ls skills/</tspan></text>
<rect x="40" y="114" width="95" height="22" rx="4" fill="#0d1117" stroke="#30363d" stroke-width="1"/>
<text x="87.5" y="128" font-family="'Courier New', Consolas, 'Lucida Console', monospace" font-size="12" fill="#e6edf3" text-anchor="middle">TypeScript</text>
<rect x="143" y="114" width="57.5" height="22" rx="4" fill="#0d1117" stroke="#30363d" stroke-width="1"/>
<text x="171.75" y="128" font-family="'Courier New', Consolas, 'Lucida Console', monospace" font-size="12" fill="#e6edf3" text-anchor="middle">React</text>
<rect x="208.5" y="114" width="35" height="22" rx="4" fill="#0d1117" stroke="#30363d" stroke-width="1"/>
<text x="226" y="128" font-family="'Courier New', Consolas, 'Lucida Console', monospace" font-size="12" fill="#e6edf3" text-anchor="middle">Go</text>
<rect x="251.5" y="114" width="50" height="22" rx="4" fill="#0d1117" stroke="#30363d" stroke-width="1"/>
<text x="276.5" y="128" font-family="'Courier New', Consolas, 'Lucida Console', monospace" font-size="12" fill="#e6edf3" text-anchor="middle">Rust</text>
<<<<<<< HEAD
<rect x="20" y="184" width="99" height="26" rx="13" fill="#161b22" stroke="#30363d" stroke-width="1"/>
=======
<text x="832" y="164" font-family="'Courier New', Consolas, 'Lucida Console', monospace" font-size="9" fill="rgba(255,255,255,0.15)" text-anchor="end">gitskins.com</text><rect x="20" y="184" width="99" height="26" rx="13" fill="#161b22" stroke="#30363d" stroke-width="1"/>
>>>>>>> c9fd9e65b0b737507d86884b279ffea1b7a81b1c
<text x="69.5" y="201" font-family="'Courier New', Consolas, 'Lucida Console', monospace" font-size="12" fill="#e6edf3" text-anchor="middle">TypeScript</text>
<rect x="127" y="184" width="76.5" height="26" rx="13" fill="#161b22" stroke="#30363d" stroke-width="1"/>
<text x="165.25" y="201" font-family="'Courier New', Consolas, 'Lucida Console', monospace" font-size="12" fill="#e6edf3" text-anchor="middle">Next.js</text>
<rect x="211.5" y="184" width="61.5" height="26" rx="13" fill="#161b22" stroke="#30363d" stroke-width="1"/>
<text x="242.25" y="201" font-family="'Courier New', Consolas, 'Lucida Console', monospace" font-size="12" fill="#e6edf3" text-anchor="middle">React</text>
<rect x="281" y="184" width="76.5" height="26" rx="13" fill="#161b22" stroke="#30363d" stroke-width="1"/>
<text x="319.25" y="201" font-family="'Courier New', Consolas, 'Lucida Console', monospace" font-size="12" fill="#e6edf3" text-anchor="middle">Node.js</text>
<rect x="365.5" y="184" width="166.5" height="26" rx="13" fill="#161b22" stroke="#30363d" stroke-width="1"/>
<text x="448.75" y="201" font-family="'Courier New', Consolas, 'Lucida Console', monospace" font-size="12" fill="#e6edf3" text-anchor="middle">Product Engineering</text>

</svg>